<?xml version="1.0" standalone="no"?>
<!DOCTYPE svg PUBLIC "-//W3C//DTD SVG 20010904//EN"
 "http://www.w3.org/TR/2001/REC-SVG-20010904/DTD/svg10.dtd">
<svg version="1.0" xmlns="http://www.w3.org/2000/svg"
 width="701.000000pt" height="201.000000pt" viewBox="0 0 701.000000 201.000000"
 preserveAspectRatio="xMidYMid meet">
<metadata>
Created by potrace 1.16, written by Peter Selinger 2001-2019
</metadata>
<g transform="translate(0.000000,201.000000) scale(0.100000,-0.100000)"
fill="#000000" stroke="none">
<path d="M6760 1375 l0 -635 125 0 125 0 0 635 0 635 -125 0 -125 0 0 -635z
m240 0 l0 -615 -115 0 -115 0 0 615 0 615 115 0 115 0 0 -615z"/>
<path d="M6850 1440 c0 -5 6 -10 14 -10 8 0 17 -8 19 -17 4 -17 5 -17 6 0 2
25 29 21 34 -5 3 -17 5 -14 6 10 1 31 0 32 -39 32 -22 0 -40 -4 -40 -10z"/>
<path d="M6860 1362 c-20 -16 -21 -21 -11 -41 7 -13 15 -20 18 -17 3 3 0 13
-7 21 -17 21 -1 38 31 33 18 -2 24 -9 23 -25 0 -13 3 -23 8 -23 17 0 8 50 -11
60 -25 13 -25 13 -51 -8z"/>
<path d="M10 1370 l0 -630 125 0 125 0 0 311 0 312 40 -6 c73 -9 107 12 50 32
-18 6 -30 6 -30 0 0 -5 -13 -9 -30 -9 l-30 0 0 310 0 310 -125 0 -125 0 0
-630z m240 0 l0 -621 -113 3 -112 3 -3 618 -2 617 115 0 115 0 0 -620z"/>
<path d="M170 1635 c0 -13 -4 -14 -21 -5 -11 6 -26 10 -34 8 -8 -2 3 -11 25
-20 l40 -17 0 25 c0 13 -2 24 -5 24 -3 0 -5 -7 -5 -15z"/>
<path d="M109 1548 c11 -15 11 -21 1 -33 -8 -9 -9 -15 -2 -15 6 0 14 5 17 10
5 8 12 7 23 -2 14 -10 15 -10 5 2 -9 10 -9 18 -1 34 10 19 10 20 -5 7 -14 -11
-20 -11 -34 0 -16 13 -17 12 -4 -3z"/>
<path d="M170 1435 c0 -13 -4 -14 -21 -5 -11 6 -26 10 -34 8 -8 -2 3 -11 25
-20 l40 -17 0 25 c0 13 -2 24 -5 24 -3 0 -5 -7 -5 -15z"/>
<path d="M116 1347 c-21 -15 -18 -58 4 -65 13 -5 13 -3 1 11 -18 23 -7 47 23
47 25 0 43 -25 26 -35 -6 -4 -10 -11 -10 -17 0 -7 6 -6 15 2 21 18 19 36 -7
54 -27 19 -29 19 -52 3z"/>
<path d="M104 1256 c-10 -26 4 -48 28 -44 17 2 23 10 23 28 0 18 -6 26 -23 28
-13 2 -25 -3 -28 -12z m46 -10 c0 -8 -5 -18 -11 -22 -14 -8 -33 11 -25 25 10
16 36 13 36 -3z"/>
<path d="M123 1193 c15 -2 27 -10 27 -18 0 -8 -12 -16 -27 -18 -26 -4 -26 -4
5 -6 28 -1 32 2 32 24 0 22 -4 25 -32 24 -31 -2 -31 -2 -5 -6z"/>
<path d="M128 1128 c-36 -13 -35 -21 2 -35 17 -6 30 -7 30 -2 0 5 -7 9 -15 9
-20 0 -19 10 3 26 20 16 17 16 -20 2z"/>
<path d="M390 1370 l0 -631 128 3 127 3 3 307 2 307 49 -2 c27 -1 53 2 57 6
15 15 -21 27 -63 21 l-43 -6 0 311 0 311 -130 0 -130 0 0 -630z m240 0 l0
-620 -110 0 -110 0 0 620 0 620 110 0 110 0 0 -620z"/>
<path d="M480 1646 c0 -27 24 -53 34 -37 4 6 14 7 22 4 18 -7 34 12 34 40 0
14 -9 17 -45 17 -41 0 -45 -2 -45 -24z m40 -6 c0 -11 -7 -20 -15 -20 -8 0 -15
9 -15 20 0 11 7 20 15 20 8 0 15 -9 15 -20z m35 0 c0 -7 -6 -15 -12 -17 -8 -3
-13 4 -13 17 0 13 5 20 13 18 6 -3 12 -11 12 -18z"/>
<path d="M480 1564 c0 -20 5 -24 30 -24 17 0 30 5 30 11 0 5 -4 7 -10 4 -5 -3
-10 1 -10 10 0 9 5 13 10 10 6 -3 10 -2 10 3 0 5 -13 9 -30 10 -25 1 -30 -3
-30 -24z m30 1 c0 -8 -4 -15 -10 -15 -5 0 -10 7 -10 15 0 8 5 15 10 15 6 0 10
-7 10 -15z"/>
<path d="M508 1522 c-16 -2 -28 -6 -28 -10 0 -8 68 -7 76 1 8 8 -19 13 -48 9z"/>
<path d="M483 1474 c-3 -8 -1 -20 5 -26 8 -8 9 -4 5 12 -5 20 -3 22 20 18 15
-3 27 -1 27 3 0 16 -50 9 -57 -7z"/>
<path d="M525 1450 c-3 -5 -1 -10 4 -10 6 0 11 5 11 10 0 6 -2 10 -4 10 -3 0
-8 -4 -11 -10z"/>
<path d="M503 1423 c15 -2 27 -10 27 -18 0 -8 -12 -16 -27 -18 -26 -4 -26 -4
5 -6 25 -1 32 3 32 18 0 11 8 22 18 24 9 3 -5 5 -33 4 -27 0 -38 -2 -22 -4z"/>
<path d="M503 1323 c15 -2 27 -10 27 -18 0 -8 -12 -16 -27 -18 -26 -4 -26 -4
5 -6 28 -1 32 2 32 24 0 22 -4 25 -32 24 -31 -2 -31 -2 -5 -6z"/>
<path d="M492 1261 c-23 -14 -10 -46 18 -46 16 0 26 6 28 19 3 16 -12 36 -28
36 -3 0 -11 -4 -18 -9z m36 -24 c2 -12 -3 -17 -17 -17 -12 0 -21 6 -21 13 0
31 32 34 38 4z"/>
<path d="M495 1193 c11 -3 26 -10 33 -15 9 -8 12 -6 12 6 0 12 -9 16 -32 15
-22 -1 -26 -3 -13 -6z"/>
<path d="M499 1151 c35 -9 37 -29 4 -34 l-28 -4 28 -2 c16 0 27 -7 27 -15 0
-8 -12 -17 -27 -19 -27 -5 -27 -5 2 -3 28 1 30 4 33 44 3 42 3 42 -30 41 -29
-1 -30 -2 -9 -8z"/>
<path d="M770 1370 l0 -630 130 0 130 0 0 316 0 316 23 -6 c12 -3 27 -6 33 -6
8 0 13 -59 16 -182 5 -160 8 -183 24 -195 25 -18 994 -19 1012 -1 8 8 12 62
12 177 0 90 -3 161 -6 158 -4 -4 -6 -73 -5 -154 1 -82 -1 -156 -4 -166 -7 -16
-40 -17 -492 -17 -315 0 -491 4 -504 10 -18 10 -19 23 -19 191 0 140 3 180 13
177 6 -3 15 -18 18 -34 l7 -29 1 28 c1 20 8 30 27 37 14 6 27 10 30 10 2 0 4
-61 4 -135 l0 -135 55 0 55 0 0 135 c0 111 2 133 14 129 8 -3 17 -1 21 5 5 10
-7 15 -27 12 -5 0 -8 60 -8 134 l0 135 -55 0 -55 0 0 -136 0 -136 -24 6 c-13
3 -32 9 -42 13 -12 4 -15 3 -10 -5 5 -9 -10 -12 -53 -12 l-61 0 0 310 0 310
-130 0 -130 0 0 -630z m240 0 l0 -620 -110 0 -110 0 0 620 0 620 110 0 110 0
0 -620z m310 0 l0 -260 -45 0 -45 0 0 260 0 260 45 0 45 0 0 -260z"/>
<path d="M864 1735 c-12 -31 4 -47 38 -40 18 4 37 11 42 15 11 11 0 40 -15 40
-8 0 -8 -4 1 -15 17 -20 5 -32 -15 -15 -10 8 -15 9 -15 1 0 -6 -7 -11 -15 -11
-18 0 -19 12 -3 28 9 9 9 12 0 12 -7 0 -15 -7 -18 -15z"/>
<path d="M870 1635 c10 -12 10 -18 -1 -32 -13 -16 -12 -17 4 -4 14 11 20 11
32 1 9 -8 15 -9 15 -2 0 6 -5 14 -10 17 -8 5 -7 12 2 23 11 15 11 15 -4 4 -11
-9 -18 -10 -23 -2 -3 5 -11 10 -17 10 -7 0 -6 -6 2 -15z"/>
<path d="M864 1535 c-12 -31 4 -47 38 -40 18 4 37 11 42 15 11 11 0 40 -15 40
-8 0 -9 -4 0 -13 6 -8 8 -17 4 -20 -3 -4 -12 -2 -20 4 -9 9 -13 8 -13 0 0 -6
-7 -11 -15 -11 -18 0 -19 12 -3 28 9 9 9 12 0 12 -7 0 -15 -7 -18 -15z"/>
<path d="M860 1440 c0 -5 10 -10 23 -11 l22 0 -22 -9 c-13 -5 -23 -12 -23 -15
0 -3 10 -10 23 -15 l22 -9 -22 0 c-44 -2 -23 -21 22 -21 53 0 58 15 13 33
l-33 13 33 12 c46 16 40 32 -13 32 -25 0 -45 -4 -45 -10z"/>
<path d="M860 1311 c0 -20 5 -42 12 -49 9 -9 9 -12 0 -12 -7 0 -12 -5 -12 -10
0 -7 6 -7 19 0 13 7 22 7 26 0 3 -5 11 -10 18 -10 8 0 8 3 -1 12 -9 9 -9 15 0
25 9 12 7 13 -14 8 -15 -4 -29 -2 -32 4 -4 7 1 11 12 11 24 0 44 23 37 42 -3
8 -19 15 -35 16 -28 1 -30 -2 -30 -37z m30 8 c0 -5 -4 -9 -10 -9 -5 0 -10 7
-10 16 0 8 5 12 10 9 6 -3 10 -10 10 -16z m17 -1 c-3 -8 -6 -5 -6 6 -1 11 2
17 5 13 3 -3 4 -12 1 -19z"/>
<path d="M870 1214 c9 -3 21 -18 27 -35 16 -42 47 -36 51 9 l3 32 -48 -1 c-26
-1 -41 -3 -33 -5z m65 -24 c0 -7 -6 -15 -12 -17 -8 -3 -13 4 -13 17 0 13 5 20
13 18 6 -3 12 -11 12 -18z"/>
<path d="M869 1134 c-9 -11 -10 -20 -2 -32 7 -12 7 -22 0 -33 -15 -24 -1 -49
27 -49 30 0 42 27 21 50 -14 16 -14 18 0 23 21 9 19 34 -4 47 -25 13 -26 13
-42 -6z m41 -19 c0 -8 -6 -15 -14 -15 -17 0 -28 14 -19 24 12 12 33 6 33 -9z
m0 -71 c0 -9 -7 -14 -17 -12 -25 5 -28 28 -4 28 12 0 21 -6 21 -16z"/>
<path d="M865 1000 c3 -5 21 -10 40 -10 19 0 37 5 40 10 4 6 -12 10 -40 10
-28 0 -44 -4 -40 -10z"/>
<path d="M6360 1370 l0 -630 125 0 125 0 0 315 0 315 41 0 c24 0 38 -4 34 -10
-9 -14 15 -12 44 4 l24 13 -32 11 c-18 7 -31 7 -31 1 0 -5 -18 -9 -40 -9 l-40
0 0 310 0 310 -125 0 -125 0 0 -630z m238 3 l-3 -618 -110 0 -110 0 -3 618 -2
617 115 0 115 0 -2 -617z"/>
<path d="M6450 1750 c-8 -14 -8 -26 0 -40 15 -27 40 -26 39 3 0 12 -3 16 -6
10 -8 -22 -25 -14 -21 10 2 16 10 22 28 22 21 0 25 -5 25 -27 -1 -31 9 -37 19
-12 18 46 -61 78 -84 34z"/>
<path d="M6468 1673 c12 -2 32 -2 45 0 12 2 2 4 -23 4 -25 0 -35 -2 -22 -4z"/>
<path d="M6451 1646 c-6 -7 -8 -21 -5 -30 9 -24 58 -17 62 8 6 31 -36 48 -57
22z m47 -18 c-7 -19 -38 -22 -38 -4 0 10 9 16 21 16 12 0 19 -5 17 -12z"/>
<path d="M6447 1571 c-2 -11 0 -24 6 -30 18 -18 48 -13 54 9 3 11 9 20 14 20
5 0 9 5 9 10 0 6 -17 10 -39 10 -30 0 -40 -4 -44 -19z m53 -10 c0 -11 -26 -22
-34 -14 -12 12 -5 23 14 23 11 0 20 -4 20 -9z"/>
<path d="M6446 1511 c-12 -19 7 -41 35 -41 22 0 29 5 29 19 0 11 -4 22 -9 25
-5 4 -7 -4 -5 -16 l5 -23 -12 23 c-12 23 -33 29 -43 13z m21 -23 c-3 -8 -6 -5
-6 6 -1 11 2 17 5 13 3 -3 4 -12 1 -19z"/>
<path d="M6468 1443 c12 -2 32 -2 45 0 12 2 2 4 -23 4 -25 0 -35 -2 -22 -4z"/>
<path d="M6450 1399 c0 -5 5 -9 10 -9 17 0 11 -38 -7 -49 -27 -16 3 -13 42 3
19 8 35 19 35 24 0 5 -18 16 -40 25 -22 8 -40 11 -40 6z m55 -29 c3 -5 -1 -10
-9 -10 -9 0 -16 5 -16 10 0 6 4 10 9 10 6 0 13 -4 16 -10z"/>
<path d="M6478 1318 c-16 -5 -28 -13 -28 -17 0 -10 51 -33 58 -27 3 3 -3 8
-12 12 -20 8 -21 24 -1 24 8 0 15 5 15 10 0 6 -1 10 -2 9 -2 0 -15 -5 -30 -11z"/>
<path d="M6456 1255 c-20 -21 -9 -45 20 -45 29 0 41 24 24 45 -16 19 -25 19
-44 0z m11 -27 c-3 -8 -6 -5 -6 6 -1 11 2 17 5 13 3 -3 4 -12 1 -19z m30 0
c-3 -8 -6 -5 -6 6 -1 11 2 17 5 13 3 -3 4 -12 1 -19z"/>
<path d="M6450 1190 c0 -5 6 -10 14 -10 8 0 16 -10 18 -22 2 -15 11 -24 26
-26 19 -3 22 1 22 32 0 35 -1 36 -40 36 -22 0 -40 -4 -40 -10z m70 -31 c0 -24
-23 -21 -28 4 -2 10 3 17 12 17 10 0 16 -9 16 -21z"/>
<path d="M6450 1105 c-10 -12 -10 -18 0 -30 20 -25 55 -15 55 15 0 30 -35 40
-55 15z m50 -15 c0 -5 -5 -12 -11 -16 -14 -8 -33 11 -25 25 7 11 36 4 36 -9z"/>
<path d="M6446 1034 c-9 -25 16 -48 43 -39 16 5 21 13 19 28 -4 28 -52 36 -62
11z m52 -11 c2 -8 -5 -13 -17 -13 -12 0 -21 6 -21 16 0 18 31 15 38 -3z"/>
<path d="M6468 973 c12 -2 32 -2 45 0 12 2 2 4 -23 4 -25 0 -35 -2 -22 -4z"/>
<path d="M1188 1703 c12 -2 30 -2 40 0 9 3 -1 5 -23 4 -22 0 -30 -2 -17 -4z"/>
<path d="M1298 1703 c12 -2 30 -2 40 0 9 3 -1 5 -23 4 -22 0 -30 -2 -17 -4z"/>
<path d="M1403 1703 c9 -2 25 -2 35 0 9 3 1 5 -18 5 -19 0 -27 -2 -17 -5z"/>
<path d="M1508 1703 c12 -2 30 -2 40 0 9 3 -1 5 -23 4 -22 0 -30 -2 -17 -4z"/>
<path d="M1618 1703 c12 -2 30 -2 40 0 9 3 -1 5 -23 4 -22 0 -30 -2 -17 -4z"/>
<path d="M1723 1703 c9 -2 25 -2 35 0 9 3 1 5 -18 5 -19 0 -27 -2 -17 -5z"/>
<path d="M1828 1703 c12 -2 30 -2 40 0 9 3 -1 5 -23 4 -22 0 -30 -2 -17 -4z"/>
<path d="M1938 1703 c12 -2 30 -2 40 0 9 3 -1 5 -23 4 -22 0 -30 -2 -17 -4z"/>
<path d="M2038 1680 c2 -16 6 -30 8 -30 2 0 4 14 4 30 0 17 -4 30 -8 30 -5 0
-7 -13 -4 -30z"/>
<path d="M2473 1703 c9 -2 25 -2 35 0 9 3 1 5 -18 5 -19 0 -27 -2 -17 -5z"/>
<path d="M2583 1703 c9 -2 25 -2 35 0 9 3 1 5 -18 5 -19 0 -27 -2 -17 -5z"/>
<path d="M2688 1703 c12 -2 30 -2 40 0 9 3 -1 5 -23 4 -22 0 -30 -2 -17 -4z"/>
<path d="M2793 1703 c9 -2 25 -2 35 0 9 3 1 5 -18 5 -19 0 -27 -2 -17 -5z"/>
<path d="M2903 1703 c9 -2 25 -2 35 0 9 3 1 5 -18 5 -19 0 -27 -2 -17 -5z"/>
<path d="M3008 1703 c12 -2 30 -2 40 0 9 3 -1 5 -23 4 -22 0 -30 -2 -17 -4z"/>
<path d="M3113 1703 c9 -2 25 -2 35 0 9 3 1 5 -18 5 -19 0 -27 -2 -17 -5z"/>
<path d="M3223 1703 c9 -2 25 -2 35 0 9 3 1 5 -18 5 -19 0 -27 -2 -17 -5z"/>
<path d="M3318 1680 c2 -16 8 -30 13 -30 5 0 9 14 9 30 0 18 -5 30 -13 30 -9
0 -12 -10 -9 -30z"/>
<path d="M3768 1703 c12 -2 30 -2 40 0 9 3 -1 5 -23 4 -22 0 -30 -2 -17 -4z"/>
<path d="M3873 1703 c9 -2 25 -2 35 0 9 3 1 5 -18 5 -19 0 -27 -2 -17 -5z"/>
<path d="M3983 1703 c9 -2 25 -2 35 0 9 3 1 5 -18 5 -19 0 -27 -2 -17 -5z"/>
<path d="M4088 1703 c12 -2 30 -2 40 0 9 3 -1 5 -23 4 -22 0 -30 -2 -17 -4z"/>
<path d="M4193 1703 c9 -2 25 -2 35 0 9 3 1 5 -18 5 -19 0 -27 -2 -17 -5z"/>
<path d="M4303 1703 c9 -2 25 -2 35 0 9 3 1 5 -18 5 -19 0 -27 -2 -17 -5z"/>
<path d="M4408 1703 c12 -2 30 -2 40 0 9 3 -1 5 -23 4 -22 0 -30 -2 -17 -4z"/>
<path d="M4513 1703 c9 -2 25 -2 35 0 9 3 1 5 -18 5 -19 0 -27 -2 -17 -5z"/>
<path d="M4618 1680 c2 -16 6 -30 8 -30 2 0 4 14 4 30 0 17 -4 30 -8 30 -5 0
-7 -13 -4 -30z"/>
<path d="M5053 1703 c9 -2 25 -2 35 0 9 3 1 5 -18 5 -19 0 -27 -2 -17 -5z"/>
<path d="M5163 1703 c9 -2 25 -2 35 0 9 3 1 5 -18 5 -19 0 -27 -2 -17 -5z"/>
<path d="M5268 1703 c12 -2 30 -2 40 0 9 3 -1 5 -23 4 -22 0 -30 -2 -17 -4z"/>
<path d="M5373 1703 c9 -2 25 -2 35 0 9 3 1 5 -18 5 -19 0 -27 -2 -17 -5z"/>
<path d="M5483 1703 c9 -2 25 -2 35 0 9 3 1 5 -18 5 -19 0 -27 -2 -17 -5z"/>
<path d="M5588 1703 c12 -2 30 -2 40 0 9 3 -1 5 -23 4 -22 0 -30 -2 -17 -4z"/>
<path d="M5693 1703 c9 -2 25 -2 35 0 9 3 1 5 -18 5 -19 0 -27 -2 -17 -5z"/>
<path d="M5803 1703 c9 -2 25 -2 35 0 9 3 1 5 -18 5 -19 0 -27 -2 -17 -5z"/>
<path d="M5898 1680 c2 -16 8 -30 13 -30 5 0 9 14 9 30 0 18 -5 30 -13 30 -9
0 -12 -10 -9 -30z"/>
<path d="M1152 1650 c0 -19 2 -27 5 -17 2 9 2 25 0 35 -3 9 -5 1 -5 -18z"/>
<path d="M2430 1650 c0 -16 5 -30 10 -30 6 0 10 14 10 30 0 17 -4 30 -10 30
-5 0 -10 -13 -10 -30z"/>
<path d="M3732 1650 c0 -19 2 -27 5 -17 2 9 2 25 0 35 -3 9 -5 1 -5 -18z"/>
<path d="M5010 1650 c0 -16 5 -30 10 -30 6 0 10 14 10 30 0 17 -4 30 -10 30
-5 0 -10 -13 -10 -30z"/>
<path d="M1380 1375 l0 -276 58 3 57 3 3 125 c3 118 8 139 35 140 4 0 7 -61 7
-135 l0 -135 60 0 60 0 0 136 c0 129 1 135 19 129 11 -3 22 -1 26 5 6 10 -7
14 -32 11 -10 -1 -13 31 -13 134 l0 135 -60 0 -60 0 0 -135 c0 -128 -1 -135
-20 -135 -18 0 -20 8 -22 133 l-3 132 -57 3 -58 3 0 -276z m100 0 l0 -265 -45
0 -45 0 0 258 c0 142 3 262 7 265 3 4 24 7 45 7 l38 0 0 -265z m160 -5 l0
-260 -40 0 -40 0 0 260 0 260 40 0 40 0 0 -260z"/>
<path d="M1720 1375 l0 -275 60 0 60 0 0 129 c0 108 3 130 16 135 9 3 18 6 20
6 2 0 4 -61 4 -135 l0 -135 60 0 60 0 0 135 c0 128 1 135 20 135 14 0 20 -7
21 -22 l1 -23 6 23 c4 13 10 23 15 23 26 -3 31 0 18 8 -7 5 -28 6 -47 4 l-34
-5 0 137 0 136 -57 -3 -58 -3 -3 -132 c-2 -124 -4 -133 -22 -133 -18 0 -20 9
-22 133 l-3 132 -57 3 -58 3 0 -276z m267 -2 l3 -263 -45 0 -45 0 0 266 0 265
43 -3 42 -3 2 -262z m-167 -3 l0 -260 -45 0 -45 0 0 260 0 260 45 0 45 0 0
-260z"/>
<path d="M2237 1643 c-4 -3 -7 -64 -7 -135 0 -129 0 -129 -22 -122 -12 3 -28
13 -36 20 -28 29 -72 10 -72 -31 0 -41 44 -60 72 -31 8 7 24 17 36 20 22 7 22
7 22 -128 l0 -136 60 0 60 0 0 135 c0 128 1 135 20 135 19 0 20 -7 20 -184 0
-155 3 -187 16 -200 14 -14 71 -16 517 -14 l502 3 5 165 c3 91 2 169 -2 174
-5 6 -8 4 -8 -5 -1 -7 -2 -84 -3 -169 l-2 -155 -492 -3 c-572 -3 -530 -10
-519 97 3 37 6 117 6 179 0 85 3 112 13 112 9 0 12 -11 9 -35 -3 -21 0 -35 7
-35 6 0 11 13 11 29 0 21 6 31 23 37 16 6 1 9 -50 11 l-73 4 0 134 0 135 -53
0 c-30 0 -57 -3 -60 -7z m93 -273 l0 -260 -40 0 -40 0 0 260 0 260 40 0 40 0
0 -260z m-165 5 c0 -22 -31 -33 -47 -17 -17 17 -1 44 24 40 15 -2 23 -10 23
-23z"/>
<path d="M2128 1373 c6 -2 18 -2 25 0 6 3 1 5 -13 5 -14 0 -19 -2 -12 -5z"/>
<path d="M2500 1375 l0 -275 60 0 60 0 0 130 c0 109 2 130 15 130 8 0 15 5 15
10 0 6 -7 10 -15 10 -12 0 -15 24 -17 133 l-3 132 -57 3 -58 3 0 -276z m100
-5 l0 -260 -45 0 -45 0 0 260 0 260 45 0 45 0 0 -260z"/>
<path d="M2667 1643 c-4 -3 -7 -127 -7 -275 l0 -268 60 0 60 0 0 129 c0 125 1
129 23 136 l22 8 -22 4 c-22 4 -23 7 -23 139 l0 134 -53 0 c-30 0 -57 -3 -60
-7z m103 -273 l0 -260 -45 0 -45 0 0 260 0 260 45 0 45 0 0 -260z"/>
<path d="M2830 1375 l0 -275 55 0 55 0 0 130 0 130 25 0 c14 0 25 5 25 10 0 6
-11 10 -25 10 l-25 0 0 135 0 135 -55 0 -55 0 0 -275z m100 -5 l0 -260 -45 0
-45 0 0 260 0 260 45 0 45 0 0 -260z"/>
<path d="M3007 1643 c-4 -3 -7 -127 -7 -275 l0 -268 60 0 60 0 0 129 c0 125 1
129 23 136 l22 8 -22 4 c-22 4 -23 7 -23 139 l0 134 -53 0 c-30 0 -57 -3 -60
-7z m103 -273 l0 -260 -45 0 -45 0 0 260 0 260 45 0 45 0 0 -260z"/>
<path d="M3170 1375 l0 -275 55 0 54 0 3 132 c3 117 5 133 21 136 12 2 17 -3
17 -17 0 -12 5 -21 10 -21 6 0 10 6 10 14 0 8 8 17 18 21 16 7 15 8 -3 15 -11
4 -32 5 -47 3 l-28 -5 0 136 0 136 -55 0 -55 0 0 -275z m100 -5 l0 -260 -45 0
-45 0 0 260 0 260 45 0 45 0 0 -260z"/>
<path d="M3520 1375 l0 -275 55 0 55 0 0 129 c0 101 3 130 14 134 8 3 17 3 20
0 3 -4 6 -152 6 -329 0 -280 2 -325 16 -338 13 -14 47 -16 220 -16 134 0 203
3 199 10 -4 6 -85 10 -210 10 -204 0 -205 0 -210 23 -3 12 -4 161 -3 332 l3
310 23 3 c19 3 22 -1 23 -35 l2 -38 6 35 c5 27 11 36 29 37 22 3 22 2 22 -132
l0 -135 60 0 60 0 0 135 c0 111 2 133 14 129 8 -3 17 -1 21 5 5 10 -7 15 -27
12 -5 0 -8 60 -8 134 l0 136 -57 -3 -58 -3 -3 -132 -3 -133 -79 0 -80 0 0 135
0 135 -55 0 -55 0 0 -275z m100 -5 l0 -260 -45 0 -45 0 0 260 0 260 45 0 45 0
0 -260z m280 0 l0 -260 -45 0 -45 0 0 260 0 260 45 0 45 0 0 -260z"/>
<path d="M3960 1375 l0 -275 55 0 55 0 0 130 c0 72 4 130 9 130 5 0 16 3 25 6
14 5 16 -10 16 -130 l0 -136 60 0 60 0 0 136 c0 129 1 135 19 129 11 -3 22 -1
26 5 6 10 -7 14 -32 11 -10 -1 -13 31 -13 134 l0 135 -60 0 -60 0 0 -135 0
-135 -25 0 -25 0 0 135 0 135 -55 0 -55 0 0 -275z m100 0 l0 -265 -45 0 -45 0
0 258 c0 142 3 262 7 265 3 4 24 7 45 7 l38 0 0 -265z m160 -5 l0 -260 -40 0
-40 0 0 260 0 260 40 0 40 0 0 -260z"/>
<path d="M4300 1375 l0 -275 55 0 55 0 0 130 c0 72 4 130 9 130 5 0 16 3 25 6
14 5 16 -10 16 -130 l0 -136 60 0 60 0 0 135 c0 128 1 135 20 135 14 0 20 -7
21 -22 l1 -23 6 23 c4 13 10 23 15 23 26 -3 31 0 18 8 -7 5 -28 6 -47 4 l-34
-5 0 136 0 136 -60 0 -60 0 0 -135 0 -135 -25 0 -25 0 0 135 0 135 -55 0 -55
0 0 -275z m265 0 l0 -260 -42 -3 -43 -3 0 266 0 266 43 -3 42 -3 0 -260z
m-165 -5 l0 -260 -45 0 -45 0 0 260 0 260 45 0 45 0 0 -260z"/>
<path d="M4810 1515 c0 -146 -4 -155 -50 -115 -38 33 -80 20 -80 -25 0 -41 39
-58 69 -31 9 7 26 17 39 20 l22 7 0 -135 0 -136 60 0 60 0 0 136 c0 124 2 135
18 132 15 -3 18 -23 22 -198 l5 -195 515 0 515 0 5 165 c3 91 2 169 -2 174 -5
6 -8 4 -8 -5 -1 -7 -2 -84 -3 -169 l-2 -155 -485 -3 c-267 -1 -495 0 -507 3
-23 5 -23 7 -23 197 l0 191 40 -6 c22 -3 43 -1 46 4 6 10 -1 11 -78 9 l-58 -1
0 135 0 136 -60 0 -60 0 0 -135z m100 -145 l0 -260 -40 0 -40 0 0 260 0 260
40 0 40 0 0 -260z m-165 5 c0 -22 -31 -33 -47 -17 -17 17 -1 44 24 40 15 -2
23 -10 23 -23z"/>
<path d="M4706 1381 c-4 -5 -2 -12 3 -15 5 -4 12 -2 15 3 4 5 2 12 -3 15 -5 4
-12 2 -15 -3z"/>
<path d="M5080 1375 l0 -275 60 0 60 0 0 129 c0 108 3 130 16 135 9 3 18 6 20
6 2 0 4 -61 4 -135 l0 -135 60 0 60 0 0 129 c0 125 1 129 23 135 18 5 19 8 7
15 -8 5 -18 7 -22 5 -4 -3 -8 56 -8 131 l0 136 -57 -3 -58 -3 -3 -132 c-2
-124 -4 -133 -22 -133 -18 0 -20 9 -22 133 l-3 132 -57 3 -58 3 0 -276z m267
-2 l3 -263 -45 0 -45 0 0 266 0 265 43 -3 42 -3 2 -262z m-167 -3 l0 -260 -45
0 -45 0 0 260 0 260 45 0 45 0 0 -260z"/>
<path d="M5410 1375 l0 -275 55 0 54 0 3 131 3 132 28 3 27 3 0 -135 0 -134
60 0 60 0 0 129 c0 125 1 129 23 135 18 5 19 8 7 15 -8 5 -18 7 -22 5 -4 -3
-8 56 -8 131 l0 136 -57 -3 -58 -3 -3 -132 -3 -133 -29 0 -30 0 0 135 0 135
-55 0 -55 0 0 -275z m100 -5 l0 -260 -45 0 -45 0 0 260 0 260 45 0 45 0 0
-260z m177 3 l-2 -258 -42 -3 -43 -3 0 260 0 261 45 0 45 0 -3 -257z"/>
<path d="M5750 1375 l0 -275 55 0 54 0 3 132 c3 117 5 133 21 136 12 2 17 -3
17 -17 0 -12 5 -21 10 -21 6 0 10 6 10 14 0 8 8 17 17 20 29 11 -6 27 -44 20
l-33 -6 0 136 0 136 -55 0 -55 0 0 -275z m100 0 l0 -265 -45 0 -45 0 0 258 c0
142 3 262 7 265 3 4 24 7 45 7 l38 0 0 -265z"/>
<path d="M6100 1375 l0 -275 55 0 54 0 3 133 3 132 28 3 c16 2 34 -1 41 -7 10
-8 21 -8 42 0 l29 11 -30 12 c-16 7 -31 9 -33 4 -2 -4 -21 -8 -43 -8 l-39 0 0
135 0 135 -55 0 -55 0 0 -275z m100 -5 l0 -260 -45 0 -45 0 0 260 0 260 45 0
45 0 0 -260z"/>
<path d="M2043 1575 c0 -22 2 -30 4 -17 2 12 2 30 0 40 -3 9 -5 -1 -4 -23z"/>
<path d="M4623 1575 c0 -22 2 -30 4 -17 2 12 2 30 0 40 -3 9 -5 -1 -4 -23z"/>
<path d="M3320 1570 c0 -16 5 -30 10 -30 6 0 10 14 10 30 0 17 -4 30 -10 30
-5 0 -10 -13 -10 -30z"/>
<path d="M5900 1569 c0 -17 4 -28 10 -24 6 3 10 17 10 31 0 13 -4 24 -10 24
-5 0 -10 -14 -10 -31z"/>
<path d="M1153 1545 c0 -22 2 -30 4 -17 2 12 2 30 0 40 -3 9 -5 -1 -4 -23z"/>
<path d="M3733 1545 c0 -22 2 -30 4 -17 2 12 2 30 0 40 -3 9 -5 -1 -4 -23z"/>
<path d="M2430 1546 c0 -14 5 -28 10 -31 6 -4 10 7 10 24 0 17 -4 31 -10 31
-5 0 -10 -11 -10 -24z"/>
<path d="M5010 1546 c0 -14 5 -28 10 -31 6 -4 10 7 10 24 0 17 -4 31 -10 31
-5 0 -10 -11 -10 -24z"/>
<path d="M2043 1465 c0 -22 2 -30 4 -17 2 12 2 30 0 40 -3 9 -5 -1 -4 -23z"/>
<path d="M4623 1465 c0 -22 2 -30 4 -17 2 12 2 30 0 40 -3 9 -5 -1 -4 -23z"/>
<path d="M5900 1471 c0 -17 5 -31 10 -31 6 0 10 11 10 24 0 14 -4 28 -10 31
-6 4 -10 -7 -10 -24z"/>
<path d="M3320 1459 c0 -17 4 -28 10 -24 6 3 10 17 10 31 0 13 -4 24 -10 24
-5 0 -10 -14 -10 -31z"/>
<path d="M1152 1440 c0 -19 2 -27 5 -17 2 9 2 25 0 35 -3 9 -5 1 -5 -18z"/>
<path d="M2437 1463 c-11 -10 -8 -53 3 -53 6 0 10 14 10 30 0 31 -2 35 -13 23z"/>
<path d="M3732 1440 c0 -19 2 -27 5 -17 2 9 2 25 0 35 -3 9 -5 1 -5 -18z"/>
<path d="M5010 1440 c0 -16 5 -30 10 -30 6 0 10 14 10 30 0 17 -4 30 -10 30
-5 0 -10 -13 -10 -30z"/>
<path d="M3395 1400 c-15 -17 -16 -24 -7 -45 12 -26 55 -35 67 -14 4 5 19 15
33 21 23 9 24 12 9 15 -11 3 -27 13 -38 24 -24 24 -41 24 -64 -1z m59 -17 c9
-21 -16 -46 -37 -37 -17 6 -23 35 -10 47 12 13 41 7 47 -10z"/>
<path d="M3416 1381 c-4 -5 -2 -12 3 -15 5 -4 12 -2 15 3 4 5 2 12 -3 15 -5 4
-12 2 -15 -3z"/>
<path d="M5970 1400 c-27 -50 36 -95 71 -51 10 12 21 21 24 21 3 -1 11 1 18 3
9 4 9 6 0 6 -24 2 -28 4 -41 22 -18 25 -58 24 -72 -1z m60 -25 c0 -20 -5 -25
-25 -25 -20 0 -25 5 -25 25 0 20 5 25 25 25 20 0 25 -5 25 -25z"/>
<path d="M5996 1381 c-4 -5 -2 -12 3 -15 5 -4 12 -2 15 3 4 5 2 12 -3 15 -5 4
-12 2 -15 -3z"/>
<path d="M5010 1330 c0 -16 5 -30 10 -30 6 0 10 14 10 30 0 17 -4 30 -10 30
-5 0 -10 -13 -10 -30z"/>
<path d="M4718 1310 c-5 -8 -9 -148 -10 -310 l-3 -295 -232 -3 -233 -2 0 130
0 130 -60 0 -60 0 2 -272 3 -273 55 0 55 0 3 133 3 132 228 0 c209 0 229 2
245 18 15 17 16 51 14 323 -2 167 -6 297 -10 289z m-498 -620 l0 -260 -40 0
-40 0 0 260 0 260 40 0 40 0 0 -260z"/>
<path d="M2043 1255 c0 -22 2 -30 4 -17 2 12 2 30 0 40 -3 9 -5 -1 -4 -23z"/>
<path d="M4623 1255 c0 -22 2 -30 4 -17 2 12 2 30 0 40 -3 9 -5 -1 -4 -23z"/>
<path d="M3320 1250 c0 -16 5 -30 10 -30 6 0 10 14 10 30 0 17 -4 30 -10 30
-5 0 -10 -13 -10 -30z"/>
<path d="M5900 1249 c0 -17 4 -28 10 -24 6 3 10 17 10 31 0 13 -4 24 -10 24
-5 0 -10 -14 -10 -31z"/>
<path d="M1153 1225 c0 -22 2 -30 4 -17 2 12 2 30 0 40 -3 9 -5 -1 -4 -23z"/>
<path d="M3733 1225 c0 -22 2 -30 4 -17 2 12 2 30 0 40 -3 9 -5 -1 -4 -23z"/>
<path d="M2430 1226 c0 -14 5 -28 10 -31 6 -4 10 7 10 24 0 17 -4 31 -10 31
-5 0 -10 -11 -10 -24z"/>
<path d="M5010 1225 c0 -14 5 -25 10 -25 6 0 10 11 10 25 0 14 -4 25 -10 25
-5 0 -10 -11 -10 -25z"/>
<path d="M2042 1150 c0 -19 2 -27 5 -17 2 9 2 25 0 35 -3 9 -5 1 -5 -18z"/>
<path d="M3320 1151 c0 -17 5 -31 10 -31 6 0 10 11 10 24 0 14 -4 28 -10 31
-6 4 -10 -7 -10 -24z"/>
<path d="M4622 1150 c0 -19 2 -27 5 -17 2 9 2 25 0 35 -3 9 -5 1 -5 -18z"/>
<path d="M5900 1151 c0 -17 5 -31 10 -31 6 0 10 11 10 24 0 14 -4 28 -10 31
-6 4 -10 -7 -10 -24z"/>
<path d="M1152 1120 c0 -19 2 -27 5 -17 2 9 2 25 0 35 -3 9 -5 1 -5 -18z"/>
<path d="M2437 1143 c-11 -10 -8 -53 3 -53 6 0 10 14 10 30 0 31 -2 35 -13 23z"/>
<path d="M3732 1120 c0 -19 2 -27 5 -17 2 9 2 25 0 35 -3 9 -5 1 -5 -18z"/>
<path d="M5010 1120 c0 -16 5 -30 10 -30 6 0 10 14 10 30 0 17 -4 30 -10 30
-5 0 -10 -13 -10 -30z"/>
<path d="M2040 1061 c0 -5 -8 -12 -17 -14 -14 -4 -12 -5 5 -6 13 -1 22 5 22
14 0 8 -2 15 -5 15 -3 0 -5 -4 -5 -9z"/>
<path d="M3312 1055 c-11 -13 -9 -15 8 -15 11 0 20 7 20 15 0 19 -11 19 -28 0z"/>
<path d="M4620 1061 c0 -5 -8 -12 -17 -14 -14 -4 -12 -5 5 -6 13 -1 22 5 22
14 0 8 -2 15 -5 15 -3 0 -5 -4 -5 -9z"/>
<path d="M5900 1061 c0 -5 -8 -12 -17 -14 -11 -3 -7 -5 10 -6 18 -1 27 4 27
14 0 8 -4 15 -10 15 -5 0 -10 -4 -10 -9z"/>
<path d="M1173 1043 c9 -2 25 -2 35 0 9 3 1 5 -18 5 -19 0 -27 -2 -17 -5z"/>
<path d="M1278 1043 c12 -2 30 -2 40 0 9 3 -1 5 -23 4 -22 0 -30 -2 -17 -4z"/>
<path d="M1383 1043 c9 -2 25 -2 35 0 9 3 1 5 -18 5 -19 0 -27 -2 -17 -5z"/>
<path d="M1493 1043 c9 -2 25 -2 35 0 9 3 1 5 -18 5 -19 0 -27 -2 -17 -5z"/>
<path d="M1598 1043 c12 -2 30 -2 40 0 9 3 -1 5 -23 4 -22 0 -30 -2 -17 -4z"/>
<path d="M1703 1043 c9 -2 25 -2 35 0 9 3 1 5 -18 5 -19 0 -27 -2 -17 -5z"/>
<path d="M1813 1043 c9 -2 25 -2 35 0 9 3 1 5 -18 5 -19 0 -27 -2 -17 -5z"/>
<path d="M1918 1043 c12 -2 30 -2 40 0 9 3 -1 5 -23 4 -22 0 -30 -2 -17 -4z"/>
<path d="M2453 1043 c9 -2 25 -2 35 0 9 3 1 5 -18 5 -19 0 -27 -2 -17 -5z"/>
<path d="M2563 1043 c9 -2 25 -2 35 0 9 3 1 5 -18 5 -19 0 -27 -2 -17 -5z"/>
<path d="M2673 1043 c9 -2 25 -2 35 0 9 3 1 5 -18 5 -19 0 -27 -2 -17 -5z"/>
<path d="M2773 1043 c9 -2 25 -2 35 0 9 3 1 5 -18 5 -19 0 -27 -2 -17 -5z"/>
<path d="M2883 1043 c9 -2 25 -2 35 0 9 3 1 5 -18 5 -19 0 -27 -2 -17 -5z"/>
<path d="M2993 1043 c9 -2 25 -2 35 0 9 3 1 5 -18 5 -19 0 -27 -2 -17 -5z"/>
<path d="M3093 1043 c9 -2 25 -2 35 0 9 3 1 5 -18 5 -19 0 -27 -2 -17 -5z"/>
<path d="M3203 1043 c9 -2 25 -2 35 0 9 3 1 5 -18 5 -19 0 -27 -2 -17 -5z"/>
<path d="M3753 1043 c9 -2 25 -2 35 0 9 3 1 5 -18 5 -19 0 -27 -2 -17 -5z"/>
<path d="M3858 1043 c12 -2 30 -2 40 0 9 3 -1 5 -23 4 -22 0 -30 -2 -17 -4z"/>
<path d="M3963 1043 c9 -2 25 -2 35 0 9 3 1 5 -18 5 -19 0 -27 -2 -17 -5z"/>
<path d="M4073 1043 c9 -2 25 -2 35 0 9 3 1 5 -18 5 -19 0 -27 -2 -17 -5z"/>
<path d="M4178 1043 c12 -2 30 -2 40 0 9 3 -1 5 -23 4 -22 0 -30 -2 -17 -4z"/>
<path d="M4283 1043 c9 -2 25 -2 35 0 9 3 1 5 -18 5 -19 0 -27 -2 -17 -5z"/>
<path d="M4393 1043 c9 -2 25 -2 35 0 9 3 1 5 -18 5 -19 0 -27 -2 -17 -5z"/>
<path d="M4498 1043 c12 -2 30 -2 40 0 9 3 -1 5 -23 4 -22 0 -30 -2 -17 -4z"/>
<path d="M5038 1043 c12 -2 30 -2 40 0 9 3 -1 5 -23 4 -22 0 -30 -2 -17 -4z"/>
<path d="M5143 1043 c9 -2 25 -2 35 0 9 3 1 5 -18 5 -19 0 -27 -2 -17 -5z"/>
<path d="M5248 1043 c12 -2 30 -2 40 0 9 3 -1 5 -23 4 -22 0 -30 -2 -17 -4z"/>
<path d="M5353 1043 c9 -2 25 -2 35 0 9 3 1 5 -18 5 -19 0 -27 -2 -17 -5z"/>
<path d="M5463 1043 c9 -2 25 -2 35 0 9 3 1 5 -18 5 -19 0 -27 -2 -17 -5z"/>
<path d="M5568 1043 c12 -2 30 -2 40 0 9 3 -1 5 -23 4 -22 0 -30 -2 -17 -4z"/>
<path d="M5673 1043 c9 -2 25 -2 35 0 9 3 1 5 -18 5 -19 0 -27 -2 -17 -5z"/>
<path d="M5783 1043 c9 -2 25 -2 35 0 9 3 1 5 -18 5 -19 0 -27 -2 -17 -5z"/>
<path d="M4947 231 c3 -12 1 -21 -6 -21 -6 0 -11 6 -11 13 0 8 -3 8 -9 -2 -5
-8 -16 -11 -25 -8 -9 4 -16 2 -16 -2 0 -13 28 -22 35 -11 3 5 12 7 20 4 18 -7
32 23 17 38 -8 8 -9 5 -5 -11z"/>
<path d="M3643 170 c0 -41 2 -60 4 -41 5 36 7 36 82 15 17 -5 22 -4 17 4 -5 9
91 12 386 13 216 1 452 5 523 8 86 5 -51 8 -400 9 -380 2 -526 5 -515 13 12 8
10 9 -10 5 -81 -20 -78 -21 -83 15 -2 19 -4 0 -4 -41z"/>
<path d="M6201 211 c-1 -24 -5 -32 -15 -28 -8 3 -32 8 -53 12 -28 4 -33 3 -18
-4 13 -6 -175 -11 -525 -13 l-545 -3 545 -5 c300 -3 537 -6 528 -8 -10 -1 -18
-6 -18 -12 0 -12 -4 -13 52 4 l47 15 3 -32 3 -32 5 35 c3 19 2 51 -1 70 l-6
35 -2 -34z"/>
<path d="M4888 138 c8 -9 10 -23 6 -29 -4 -8 -3 -9 5 -5 6 4 18 2 26 -4 9 -8
15 -8 15 -2 0 6 -6 12 -12 15 -10 3 -9 8 2 23 14 18 14 18 -2 5 -15 -11 -21
-11 -35 0 -16 13 -17 12 -5 -3z"/>
</g>
</svg>
