<?xml version="1.0" encoding="UTF-8" standalone="no"?>
<!-- Created with Inkscape (http://www.inkscape.org/) -->

<svg
   version="1.1"
   id="svg2"
   width="3811.3813"
   height="13.284"
   viewBox="0 0 3811.3813 13.284"
   xmlns="http://www.w3.org/2000/svg"
   xmlns:svg="http://www.w3.org/2000/svg">
  <defs
     id="defs6" />
  <g
     id="g8"
     transform="matrix(1.3333333,0,0,-1.3333333,0,13.284)">
    <text
       xml:space="preserve"
       transform="matrix(1,0,0,-1,0,2.491)"
       style="font-variant:normal;font-weight:normal;font-size:9.9626px;font-family:CMR10;-inkscape-font-specification:CMR10;writing-mode:lr-tb;fill:#000000;fill-opacity:1;fill-rule:nonzero;stroke:none"
       id="text12"><tspan
         x="0 2.7676103 7.1949897 9.9625998 13.86495 18.29233 21.05994 25.48732 31.572475 37.107697 39.875305 42.642918 50.391827 55.927048 58.694656 64.229881 68.657257 71.424866 76.406166 81.387466 84.155075 89.136375 93.038727 97.46611 101.89349 107.42871 113.52383 117.38832 121.82566 127.08392 130.95837 138.70729 145.90228 151.42754 154.19514 158.0696 162.50694 168.5921 172.46655 176.89394 182.15219 189.34419 196.53918 199.30679 204.84201 208.71648 214.25169 222.0006 226.9819 231.40929 239.71112 245.79626 249.67073 255.20595 259.63333 266.8353 274.44571 277.21332 282.19464 288.00879 292.43619 296.31064 299.07825 306.82318 314.01816 318.99945 327.3013 332.83652 335.60413 338.37173 342.79913 347.78043 351.65488 354.42249 359.40378 364.939 368.86826 374.9534 377.72101 383.25623 387.1586 391.86093 399.05594 406.80484 412.34006 417.32135 422.85657 427.28397 433.37909 437.28143 441.7088 446.1362 450.01065 454.99194 460.52716 465.50845 468.27606 472.70346 478.7886 484.60278 489.03015 491.79776 496.50012 503.6951 511.44403 516.42529 522.78741 528.32263 532.75006 535.51764 539.39209 543.81946 549.07776 556.27972 563.47467 566.24231 571.77753 575.65198 581.18719 588.9361 593.91742 598.34479 606.64661 612.73175 618.26703 621.03461 623.80225 631.55115 637.08636 639.85394 645.38916 649.81659 652.58417 657.56549 662.54675 665.31439 669.21674 673.6441 679.17932 685.26447 689.13892 693.56635 698.82458 702.69904 710.44794 717.64294 723.17816 725.9458 729.82025 734.24762 740.33276 744.20721 749.74243 752.78699 758.3222 765.52417 773.13464 775.90222 780.88354 786.68774 791.11511 794.98956 797.7572 805.51208 811.17877 816.43903 821.42035 828.61237 836.08429 838.85193 843.2793 847.70667 851.60901 857.70416 860.47174 866.00696 869.9093 874.61169 881.80664 887.89185 891.79419 896.22156 900.64893 904.52338 909.5047 915.03992 920.02118 922.78882 927.21619 933.31134 939.11554 943.54291 946.31049 951.02283 958.21783 965.96674 970.948 977.31012 982.84534 987.27277 993.35791 996.12549 1000.5529 1003.5975 1007.4719 1015.2208 1020.2021 1026.5642 1032.0995 1035.144 1040.6792 1046.7744 1050.6488 1055.0762 1060.3345 1067.5265 1074.7214 1077.489 1083.0243 1086.8987 1092.434 1100.1829 1105.1642 1109.5916 1117.8934 1123.9785 1127.853 1133.3882 1138.9235 1146.1254 1153.5973 1158.0248 1163.006 1166.9083 1174.1003 1181.2933 1185.1678 1189.0422 1194.0236 1198.172 1203.4303 1209.5254 1212.293 1217.8282 1221.7306 1226.4329 1233.6279 1239.713 1243.6155 1248.0428 1252.4702 1256.3446 1261.3259 1266.8612 1271.8424 1274.6101 1279.0375 1285.1226 1290.9368 1295.3641 1298.1317 1302.8341 1310.0291 1317.778 1322.7593 1329.1313 1334.6666 1339.094 1345.1792 1347.9468 1352.3741 1355.4187 1359.2932 1367.0421 1372.0233 1378.3855 1383.9207 1389.4559 1395.551 1399.4255 1403.8529 1409.1111 1416.3031 1423.4982 1426.2657 1431.8009 1435.6754 1441.2107 1448.9596 1453.9408 1458.3683 1466.67 1472.7552 1476.6296 1482.1649 1487.1462 1494.3481 1502.0872 1505.9895 1510.9707 1517.0659 1524.5378 1528.9652 1533.9465 1536.7141 1540.5886 1546.1238 1552.209 1554.9766 1560.5117 1564.4142 1569.1165 1576.3115 1582.4066 1586.309 1590.7363 1595.1637 1599.0381 1604.0194 1609.5547 1614.536 1617.3036 1621.731 1627.8162 1633.6302 1638.0576 1640.8253 1645.5276 1652.7227 1660.4716 1665.4529 1671.8149 1677.3502 1681.7776 1684.5452 1688.4475 1691.2151 1696.1964 1701.4526 1705.3271 1713.076 1718.0574 1724.4294 1729.9646 1733.0092 1738.5344 1744.6296 1748.504 1752.9314 1758.1897 1765.3817 1772.5767 1775.3442 1780.8795 1784.7539 1790.2892 1798.0381 1803.0194 1807.4468 1815.7487 1821.8337 1825.7083 1831.2434 1836.7787 1843.9806 1851.5911 1854.3586 1859.34 1865.1442 1869.5715 1873.446 1876.2136 1883.9685 1891.4404 1895.8678 1901.4031 1906.9382 1910.8406 1915.8219 1921.3572 1926.3385 1930.2129 1935.4691 1940.7274 1946.8126 1949.5802 1955.1155 1959.0178 1963.7201 1970.9152 1977.0103 1980.9126 1985.34 1989.7673 1993.6418 1998.623 2004.1583 2009.1396 2011.9072 2016.3346 2022.4198 2028.2339 2032.6613 2035.429 2040.1312 2047.3263 2055.0752 2060.0564 2066.4187 2071.9539 2076.3811 2079.1487 2083.051 2085.8188 2090.8 2096.0564 2099.9307 2107.6797 2112.6609 2119.033 2124.5684 2130.1035 2136.1887 2140.0632 2144.4905 2149.7488 2156.9407 2164.1357 2166.9033 2172.4385 2176.313 2181.8481 2189.5972 2194.5784 2199.0059 2207.3076 2213.4028 2217.2773 2222.8025 2226.7048 2233.9067 2241.5173 2244.2849 2249.2661 2255.0803 2259.5078 2263.3821 2266.1499 2273.8948 2281.2283 2285.6555 2289.53 2292.2976 2297.8328 2302.8142 2308.3494 2313.3306 2317.2051 2322.4614 2327.7197 2333.8047 2336.5725 2339.8931 2344.5972 2350.6924 2354.5669 2360.1021 2362.8696 2367.0181 2372.2764 2378.3616 2382.2361 2387.7712 2392.1985 2399.3906 2407.6995 2411.574 2417.1091 2420.1536 2425.689 2429.5632 2435.6484 2438.416 2441.7366 2446.4409 2452.5261 2456.4006 2461.9358 2464.7034 2468.8618 2474.1201 2480.2053 2484.0796 2489.615 2494.0422 2501.2344 2504.5547 2517.845 2521.7195 2527.2546 2532.7798 2536.6543 2542.7495 2545.5171 2548.8376 2553.542 2559.627 2563.5015 2569.0366 2571.8044 2575.9529 2581.2109 2587.3062 2591.1807 2596.7158 2601.1433 2608.3352 2611.6558 2624.9358 2628.8103 2634.3455 2638.2478 2642.1223 2648.2175 2650.9851 2654.3057 2659.01 2665.0952 2668.9695 2674.5049 2677.2725 2681.4209 2686.6792 2692.7642 2696.6387 2702.1738 2706.6013 2713.8032 2717.1238 2730.4041 2734.2783 2739.8137 2745.3489 2749.2234 2755.3083 2758.0762 2761.3965 2766.1008 2772.196 2776.0706 2781.6057 2784.3733 2788.5217 2793.78 2799.8652 2803.7397 2809.2749 2813.7021 2820.8943 2824.2249 2837.5049 2841.3794 2846.9146 2851.8958 2855.7703"
         y="0"
         id="tspan10">[circle,fll=blue!20!green,text=white,textwidth=2cm](dc)DiabeticComplications;[draw=none,rectangle,below=ofdc,textwidth=2cm,fll=blue!40!red,text=white](dfu)DiabeticFootUlcer;[draw,rectangle,below=ofdc,left=ofdfu,textwidth=2cm](dh)HeartAttack;[draw,rectangle,below=ofdc,left=ofdh,textwidth=2cm](do)OralHealth;[draw,rectangle,below=ofdc,right=ofdfu,textwidth=2cm](dn)DiabeticNephropathy;[draw,rectangle,below=ofdc,right=ofdn,textwidth=2cm](dr)DiabeticRetinopathy;[-¿,thick](dc)–(dfu);[-¿,thick](dc)-—(dn);[-¿,thick](dc)-—(dr);[-¿,thick](dc)-—(dh);[-¿,thick](dc)-—(do);</tspan></text>
  </g>
</svg>
